<?xml version="1.0" standalone="no"?>
<!DOCTYPE svg PUBLIC "-//W3C//DTD SVG 20010904//EN"
 "http://www.w3.org/TR/2001/REC-SVG-20010904/DTD/svg10.dtd">
<svg version="1.0" xmlns="http://www.w3.org/2000/svg"
 width="800.000000pt" height="800.000000pt" viewBox="0 0 800.000000 800.000000"
 preserveAspectRatio="xMidYMid meet">
<metadata>
Created by potrace 1.11, written by Peter Selinger 2001-2013
</metadata>
<g transform="translate(0.000000,800.000000) scale(0.100000,-0.100000)"
fill="#000000" stroke="none">
<path d="M4098 7926 c-1 -2 -30 -6 -64 -9 -174 -17 -316 -89 -442 -227 -32
-34 -69 -108 -77 -153 -8 -40 -13 -46 -47 -52 -64 -13 -112 -84 -103 -155 6
-46 25 -70 57 -70 9 0 24 -13 33 -30 14 -27 26 -35 48 -31 39 6 -78 -125 -168
-188 -57 -41 -186 -65 -245 -46 -12 4 -19 12 -17 19 3 7 1 19 -3 26 -5 7 -4
25 1 39 12 29 -4 76 -29 86 -68 28 -174 3 -222 -52 -39 -44 -63 -98 -57 -129
4 -21 -1 -24 -49 -34 -119 -25 -202 -85 -315 -227 -126 -159 -159 -279 -154
-573 2 -107 8 -220 15 -250 12 -53 78 -244 105 -305 7 -16 22 -52 33 -80 11
-27 33 -79 50 -115 97 -212 122 -271 162 -390 31 -95 54 -190 64 -265 2 -22
11 -76 20 -120 8 -44 16 -100 18 -125 l3 -45 -37 -3 c-38 -3 -42 -9 -52 -62
-2 -14 -12 -47 -21 -74 -9 -27 -14 -58 -12 -70 3 -12 10 -39 16 -61 10 -39 9
-41 -29 -76 -22 -20 -56 -65 -76 -99 -19 -34 -42 -64 -49 -66 -19 -8 -34 -53
-33 -99 1 -22 -11 -92 -26 -155 -24 -97 -33 -119 -59 -142 -29 -26 -31 -26
-60 -12 -34 18 -77 6 -77 -20 0 -26 -18 -27 -47 -3 -15 13 -45 30 -66 36 -32
11 -41 10 -61 -2 -27 -18 -43 -17 -75 5 -25 18 -48 14 -95 -17 -13 -9 -59 -28
-102 -43 -57 -19 -82 -33 -89 -50 -7 -16 -17 -21 -35 -19 -67 9 -96 -9 -238
-149 -75 -74 -138 -139 -138 -145 -1 -5 -3 -10 -4 -11 -1 -2 -4 -15 -6 -31 -1
-15 -28 -79 -58 -142 -31 -63 -56 -117 -56 -119 0 -3 6 -11 14 -19 10 -10 12
-25 7 -53 -18 -95 19 -215 102 -337 9 -13 9 -19 0 -25 -16 -10 -22 -52 -12
-79 5 -14 20 -24 42 -28 36 -7 40 -17 63 -145 15 -84 14 -87 -11 -104 -21 -14
-24 -20 -15 -36 6 -11 20 -20 30 -20 11 0 21 -3 21 -7 1 -5 3 -24 5 -43 2 -19
6 -41 9 -48 2 -7 -2 -15 -10 -18 -19 -8 -19 -33 0 -54 18 -20 21 -36 30 -135
3 -38 8 -83 10 -100 6 -37 15 -117 20 -170 2 -22 6 -65 10 -95 9 -80 13 -118
20 -180 9 -85 15 -142 20 -180 3 -19 7 -57 10 -85 3 -27 8 -72 11 -100 3 -27
7 -66 9 -85 2 -19 6 -48 8 -65 3 -16 9 -64 12 -105 4 -41 8 -82 10 -90 1 -8 6
-51 10 -94 4 -43 8 -87 10 -96 2 -11 -4 -20 -16 -23 -23 -6 -16 -33 12 -42 10
-4 18 -9 18 -13 -9 -58 18 -94 64 -88 65 8 73 18 67 84 -1 14 7 30 19 38 22
16 18 49 -5 40 -8 -3 -15 -2 -15 2 -5 27 -8 57 -14 132 -6 93 -13 178 -19 255
-2 28 -7 91 -10 140 -4 50 -9 113 -11 140 -3 28 -7 83 -10 124 -3 41 -8 97
-10 125 -3 28 -7 80 -10 116 -9 135 -16 236 -21 280 -2 25 -6 81 -9 125 -3 44
-7 97 -9 117 -3 23 1 41 10 49 19 15 18 36 -2 47 -12 6 -18 27 -21 63 -3 48
-1 55 19 64 34 15 34 41 1 57 l-28 13 0 109 0 110 32 19 c18 10 34 24 34 30 5
35 -3 63 -20 80 -18 18 -18 22 -5 42 20 31 52 145 55 197 3 67 -11 126 -43
181 -23 39 -26 52 -16 58 7 5 17 9 22 9 6 0 22 11 36 25 21 20 33 24 57 19 30
-6 31 -8 21 -33 -5 -14 -12 -82 -13 -151 -3 -109 -1 -134 19 -197 31 -95 68
-157 129 -216 47 -46 154 -115 170 -109 15 5 5 -12 -56 -102 -88 -127 -114
-173 -141 -254 -62 -181 -2 -469 112 -545 46 -30 185 -66 229 -60 l32 5 -16
-58 c-15 -57 -14 -128 3 -224 8 -49 70 -161 121 -219 23 -26 72 -67 110 -91
92 -59 133 -104 133 -144 -1 -37 -24 -67 -65 -83 -30 -12 -44 -12 -138 2 -41
6 -52 4 -67 -12 -30 -33 -41 -63 -42 -111 -2 -61 9 -91 34 -101 11 -4 107 -6
212 -4 265 6 271 10 281 208 3 61 8 133 12 160 3 28 7 68 8 90 1 22 3 43 4 46
0 3 18 5 39 6 144 2 147 2 182 32 l35 29 -1 90 0 90 50 -25 c118 -60 196 -77
356 -76 114 0 158 8 266 49 136 50 168 47 247 -30 41 -39 55 -46 88 -46 31 0
46 7 72 33 84 87 127 94 251 46 118 -46 152 -52 286 -52 132 -1 178 4 226 24
l41 17 -20 -61 c-23 -72 -28 -257 -7 -282 17 -21 48 -18 62 5 12 18 13 16 23
-22 8 -34 16 -44 43 -55 l34 -14 62 63 c34 35 77 82 95 106 25 32 39 42 62 42
16 0 29 -3 30 -7 0 -5 2 -15 3 -23 2 -8 6 -60 10 -115 18 -266 19 -268 60
-300 32 -24 37 -25 239 -27 237 -3 236 -4 239 77 2 58 -6 88 -35 128 -19 28
-22 29 -76 22 -114 -15 -128 -14 -166 17 -69 58 -42 115 101 211 82 54 124 98
171 176 44 73 63 137 69 236 4 58 2 92 -10 122 l-15 43 27 6 c156 35 208 62
247 129 42 71 75 206 75 305 0 100 -13 151 -70 285 -46 108 -59 130 -104 187
-16 21 -27 39 -25 40 2 2 34 18 70 36 78 39 175 128 208 192 37 72 68 176 71
235 l1 30 18 -21 c25 -30 71 -22 71 13 0 66 -70 287 -125 393 -16 31 -76 93
-144 149 -25 20 -55 46 -68 57 -13 12 -36 27 -51 34 -15 7 -52 40 -82 74 -30
34 -70 72 -88 84 -32 22 -65 80 -77 137 -7 32 -118 145 -241 245 -22 18 -131
85 -189 116 l-40 22 1 109 c0 94 4 156 20 358 1 21 6 55 9 75 12 59 14 72 30
170 8 52 19 110 24 128 5 18 10 35 10 37 0 19 56 185 81 239 16 36 27 66 23
66 -3 0 -1 6 4 13 6 6 29 55 53 107 23 52 50 113 60 135 79 175 158 408 167
493 5 37 8 148 7 247 0 157 -3 191 -24 265 -12 47 -33 105 -45 130 -51 101
-204 270 -277 306 -57 29 -128 51 -153 49 -17 -1 -20 5 -21 42 -1 48 -38 111
-84 144 -36 27 -110 43 -153 35 -59 -11 -74 -33 -71 -99 3 -73 -8 -87 -71 -88
-75 -1 -163 27 -209 65 -65 54 -120 109 -139 139 -17 27 -17 27 8 37 14 5 30
21 35 35 6 15 17 25 29 25 11 0 29 9 39 21 24 25 22 107 -3 145 -21 32 -75 66
-97 60 -13 -3 -21 8 -34 52 -31 107 -59 146 -181 247 -73 61 -139 92 -243 115
-30 7 -65 16 -77 20 -11 5 -23 7 -25 6z"/>
</g>
</svg>
