<?xml version="1.0" encoding="UTF-8" standalone="no"?>
<!DOCTYPE svg PUBLIC "-//W3C//DTD SVG 1.1//EN" "http://www.w3.org/Graphics/SVG/1.1/DTD/svg11.dtd">
<svg width="100%" height="100%" viewBox="0 0 1202 218" version="1.1" xmlns="http://www.w3.org/2000/svg" xmlns:xlink="http://www.w3.org/1999/xlink" xml:space="preserve" style="fill-rule:evenodd;clip-rule:evenodd;stroke-linejoin:round;stroke-miterlimit:1.41421;">
    <g transform="matrix(8.33333,0,0,8.33333,-1328.65,-3926.85)">
        <clipPath id="_clip1">
            <path d="M156.802,284.778C151.258,284.778 146.722,289.314 146.722,294.858L146.722,508.697C146.722,514.241 151.258,518.778 156.802,518.778L298.642,518.778C304.186,518.778 308.722,514.241 308.722,508.697L308.722,294.858C308.722,289.314 304.186,284.778 298.642,284.778L156.802,284.778Z"/>
        </clipPath>
        <g clip-path="url(#_clip1)">
            <path d="M303.054,490.768C303.032,490.733 300.816,487.301 299.649,483.796C298.516,480.394 298.376,477.858 298.375,477.844C298.336,476.953 297.934,476.115 297.263,475.526C296.591,474.939 295.708,474.651 294.819,474.73C294.28,474.779 292.968,474.864 292.357,474.855C291.77,474.839 290.543,474.687 289.908,474.595C289.268,474.503 288.62,474.606 288.044,474.877C288.043,474.749 288.039,474.625 288.039,474.496C288.039,472.691 286.576,471.227 284.77,471.227L281.414,471.227C280.484,471.227 279.635,471.601 279.035,472.229C278.436,471.606 277.595,471.227 276.68,471.227L273.324,471.227C271.519,471.227 270.055,472.691 270.055,474.496C270.055,474.927 270.047,475.35 270.036,475.767C269.935,475.661 269.838,475.551 269.723,475.459C269.026,474.902 268.131,474.654 267.246,474.771C266.61,474.856 265.381,474.994 264.793,475.004C264.207,475.009 262.972,474.916 262.333,474.853C261.464,474.769 260.597,475.031 259.925,475.587C259.841,475.657 259.774,475.74 259.698,475.816C258.297,470.519 250.257,471.134 247.108,471.376C246.179,471.448 245.325,471.912 244.761,472.651C244.195,473.391 243.972,474.337 244.147,475.251C244.148,475.258 244.184,475.447 244.24,475.77C241.657,474.469 238.004,473.614 232.854,473.614C231.906,473.614 231.005,474.025 230.384,474.742C229.763,475.457 229.484,476.409 229.618,477.347C229.624,477.386 230.174,481.266 230.174,485.066C230.174,485.783 230.155,486.501 230.123,487.197C229.614,486.157 229.099,484.983 228.704,483.797L228.704,483.796C227.572,480.394 227.431,477.858 227.43,477.844C227.391,476.953 226.99,476.115 226.318,475.526C225.647,474.939 224.763,474.651 223.874,474.73C223.335,474.779 222.023,474.868 221.412,474.855C220.825,474.839 219.598,474.687 218.963,474.595C218.322,474.503 217.675,474.606 217.099,474.877C217.098,474.749 217.095,474.625 217.095,474.496C217.095,472.691 215.631,471.227 213.825,471.227L210.469,471.227C209.539,471.227 208.69,471.601 208.091,472.229C207.491,471.606 206.65,471.227 205.736,471.227L202.379,471.227C200.574,471.227 199.11,472.691 199.11,474.496C199.11,474.927 199.102,475.35 199.091,475.767C198.99,475.661 198.893,475.551 198.778,475.459C198.081,474.902 197.189,474.654 196.301,474.771C195.666,474.856 194.439,474.994 193.848,475.004C193.263,475.009 192.027,474.916 191.388,474.853C190.517,474.769 189.652,475.031 188.98,475.587C188.307,476.144 187.885,476.946 187.807,477.815C187.805,477.843 187.613,479.968 187.244,482.445C186.902,482.402 186.552,482.408 186.203,482.477C186.186,482.48 185.206,482.668 183.856,482.785C184.487,478.311 185.33,476.356 185.33,476.356C185.811,475.328 185.723,474.123 185.1,473.173C184.478,472.224 183.4,471.666 182.27,471.7C182.26,471.7 181.214,471.729 179.803,471.611C178.415,471.497 177.4,471.299 177.359,471.29C176.385,471.093 175.375,471.355 174.615,471.994C173.853,472.633 173.424,473.585 173.45,474.58C173.45,474.618 173.541,478.357 173.221,482.206C173.142,483.15 173.041,484.075 172.932,484.936C172.556,485.055 171.839,485.27 170.937,485.478C170.935,480.959 171.495,478.906 171.495,478.906C171.828,477.821 171.572,476.64 170.823,475.788C170.074,474.936 168.933,474.53 167.814,474.724C167.804,474.726 166.772,474.9 165.358,474.982C163.959,475.062 162.924,475.009 162.893,475.007C161.897,474.942 160.937,475.348 160.274,476.088C159.61,476.829 159.319,477.831 159.484,478.813C159.49,478.849 160.102,482.523 160.325,486.394C160.547,490.246 160.356,493.873 160.354,493.91C160.299,494.931 160.724,495.919 161.505,496.58C162.101,497.086 162.852,497.356 163.618,497.356C163.855,497.356 164.093,497.33 164.327,497.278C165.145,497.096 167.673,496.601 169.524,496.495C171.628,496.374 174.051,496.778 174.072,496.781C175.151,496.963 176.248,496.597 176.999,495.802C177.607,495.16 177.915,494.304 177.883,493.437C178.867,493.414 179.982,493.417 180.914,493.496C182.232,493.605 183.647,493.937 184.522,494.171C184.597,494.333 184.681,494.493 184.784,494.643C185.449,495.612 186.578,496.144 187.755,496.053C188.29,496.007 190.591,495.994 192.505,496.002C193.283,496.026 194.025,495.729 194.597,495.258C194.878,495.989 195.413,496.598 196.11,496.97C196.589,497.226 197.118,497.356 197.649,497.356C198.02,497.356 198.391,497.292 198.748,497.165L203.673,495.409C204.227,495.21 207.211,492.981 207.362,491.678C207.533,490.201 207.682,488.906 207.811,487.77C208.061,487.792 208.318,487.785 208.567,487.75C208.967,490.647 209.362,493.431 209.362,493.431C209.575,494.931 210.79,496.087 212.299,496.227C212.4,496.236 212.5,496.241 212.6,496.241C213.305,496.241 213.973,496.012 214.521,495.614C215.209,495.603 217.34,495.684 219.146,495.773C219.932,495.808 220.677,495.568 221.269,495.122C221.517,495.864 222.025,496.497 222.704,496.9C223.214,497.202 223.79,497.356 224.369,497.356C224.693,497.356 225.017,497.308 225.331,497.211L230.329,495.672C230.415,495.646 230.49,495.598 230.573,495.566C231.182,496.164 231.993,496.518 232.854,496.518L233.575,496.518C237.435,496.518 241.075,496.484 244.064,495.305C244.882,494.983 245.745,494.526 246.559,493.893C247.146,494.383 247.88,494.663 248.644,494.663C248.727,494.663 248.811,494.659 248.894,494.653L253.413,494.305C254.098,494.252 254.741,493.997 255.259,493.579C255.351,493.953 255.505,494.315 255.729,494.643C256.393,495.612 257.522,496.144 258.7,496.053C259.234,496.007 261.535,495.994 263.45,496.002C264.237,496.026 264.97,495.729 265.542,495.258C265.823,495.989 266.358,496.598 267.055,496.97C267.533,497.226 268.063,497.356 268.594,497.356C268.965,497.356 269.336,497.292 269.693,497.165L274.618,495.409C275.172,495.21 278.156,492.981 278.306,491.678C278.477,490.201 278.627,488.906 278.756,487.77C279.007,487.792 279.263,487.785 279.512,487.75C279.911,490.647 280.307,493.431 280.307,493.431C280.52,494.931 281.735,496.087 283.243,496.227C283.345,496.236 283.445,496.241 283.546,496.241C284.25,496.241 284.918,496.012 285.466,495.614C286.153,495.604 288.284,495.684 290.091,495.773C290.874,495.804 291.621,495.567 292.215,495.122C292.462,495.864 292.97,496.497 293.65,496.9C294.159,497.202 294.735,497.356 295.315,497.356C295.638,497.356 295.962,497.308 296.277,497.211L301.275,495.672C302.254,495.371 303.036,494.627 303.386,493.663C303.736,492.699 303.613,491.627 303.054,490.768" style="fill:white;fill-rule:nonzero;"/>
            <path d="M162.707,478.271C162.707,478.271 163.902,478.34 165.546,478.246C167.191,478.151 168.37,477.945 168.37,477.945C168.37,477.945 167.327,481.339 167.782,489.251C171.061,489.063 174.298,487.928 174.298,487.928C174.298,487.928 174.139,489.3 174.222,490.741C174.305,492.182 174.622,493.559 174.622,493.559C174.622,493.559 171.856,493.085 169.336,493.231C166.815,493.376 163.618,494.086 163.618,494.086C163.618,494.086 163.824,490.302 163.588,486.208C163.353,482.112 162.707,478.271 162.707,478.271" style="fill:rgb(255,203,55);fill-rule:nonzero;"/>
            <path d="M176.717,474.497C176.717,474.497 177.89,474.732 179.531,474.869C181.173,475.006 182.369,474.968 182.369,474.968C182.369,474.968 180.861,478.183 180.203,486.08C183.476,486.352 186.841,485.683 186.841,485.683C186.841,485.683 186.49,487.018 186.371,488.457C186.251,489.895 186.373,491.303 186.373,491.303C186.373,491.303 183.7,490.447 181.184,490.238C178.669,490.028 175.403,490.284 175.403,490.284C175.403,490.284 176.137,486.566 176.478,482.478C176.818,478.391 176.717,474.497 176.717,474.497" style="fill:rgb(255,203,55);fill-rule:nonzero;"/>
            <path d="M193.232,482.807C193.232,482.807 193.3,482.135 193.356,480.754C193.356,480.754 193.633,480.875 194.146,480.867C194.658,480.858 195.091,480.725 195.091,480.725C195.091,480.725 195.315,482.338 195.401,482.771C194.888,482.78 193.232,482.807 193.232,482.807M198.472,484.784C196.987,480.904 196.734,478.011 196.734,478.011C196.734,478.011 194.904,478.255 193.902,478.272C192.9,478.288 191.063,478.105 191.063,478.105C191.063,478.105 190.731,481.836 190.079,485.318C189.426,488.8 187.481,492.795 187.481,492.795C188.482,492.712 192.522,492.733 192.522,492.733L193.554,486.7L195.757,486.596L197.649,494.086L202.574,492.329C202.574,492.329 199.957,488.664 198.472,484.784" style="fill:rgb(255,203,55);fill-rule:nonzero;"/>
            <path d="M220.454,482.624C220.454,482.624 220.552,481.956 220.668,480.578C220.668,480.578 220.94,480.712 221.453,480.726C221.965,480.739 222.403,480.626 222.403,480.626C222.403,480.626 222.556,482.248 222.623,482.684C222.11,482.67 220.454,482.624 220.454,482.624M225.602,484.83C224.29,480.888 224.164,477.986 224.164,477.986C224.164,477.986 222.325,478.15 221.323,478.123C220.322,478.096 218.494,477.831 218.494,477.831C218.494,477.831 217.998,481.544 217.193,484.994C216.388,488.444 214.268,492.35 214.268,492.35C215.272,492.31 219.307,492.509 219.307,492.509L220.604,486.527L222.81,486.52L224.37,494.087L229.368,492.549C229.368,492.549 226.914,488.772 225.602,484.83" style="fill:rgb(255,203,55);fill-rule:nonzero;"/>
            <path d="M213.825,474.497L210.469,474.497C210.469,474.497 210.008,476.668 208.102,478.574C206.196,476.668 205.735,474.497 205.735,474.497L202.378,474.497C202.378,480.808 201.16,485.715 201.16,485.715L204.114,491.303C204.114,491.303 205.306,481 205.214,480.908C206.345,482.039 208.102,484.516 208.102,484.516C208.102,484.516 209.859,482.039 210.989,480.908C210.897,481 212.598,492.972 212.598,492.972L215.044,485.715C215.044,485.715 213.825,480.808 213.825,474.497" style="fill:rgb(255,203,55);fill-rule:nonzero;"/>
            <g transform="matrix(1,0,0,1,0.323918,0.0004)">
                <path d="M264.178,482.807C264.178,482.807 264.245,482.135 264.302,480.754C264.302,480.754 264.579,480.875 265.091,480.867C265.604,480.858 266.037,480.725 266.037,480.725C266.037,480.725 266.261,482.338 266.347,482.771C265.834,482.78 264.178,482.807 264.178,482.807M269.418,484.784C267.933,480.904 267.679,478.011 267.679,478.011C267.679,478.011 265.849,478.255 264.847,478.272C263.846,478.288 262.009,478.105 262.009,478.105C262.009,478.105 261.677,481.836 261.024,485.318C260.372,488.8 258.427,492.795 258.427,492.795C259.428,492.712 263.467,492.733 263.467,492.733L264.5,486.7L266.703,486.596L268.594,494.086L273.519,492.329C273.519,492.329 270.903,488.664 269.418,484.784" style="fill:rgb(255,146,57);fill-rule:nonzero;"/>
            </g>
            <path d="M291.399,482.624C291.399,482.624 291.496,481.956 291.613,480.578C291.613,480.578 291.884,480.712 292.397,480.726C292.91,480.739 293.348,480.626 293.348,480.626C293.348,480.626 293.501,482.248 293.567,482.684C293.055,482.67 291.399,482.624 291.399,482.624M296.547,484.83C295.234,480.888 295.108,477.986 295.108,477.986C295.108,477.986 293.27,478.15 292.268,478.123C291.266,478.096 289.439,477.831 289.439,477.831C289.439,477.831 288.943,481.544 288.138,484.994C287.333,488.444 285.213,492.35 285.213,492.35C286.216,492.31 290.252,492.509 290.252,492.509L291.549,486.527L293.754,486.52L295.314,494.087L300.312,492.549C300.312,492.549 297.859,488.772 296.547,484.83" style="fill:rgb(255,146,57);fill-rule:nonzero;"/>
            <path d="M284.77,474.497L281.413,474.497C281.413,474.497 280.953,476.668 279.047,478.574C277.141,476.668 276.681,474.497 276.681,474.497L273.323,474.497C273.323,480.808 272.104,485.715 272.104,485.715L275.059,491.303C275.059,491.303 276.251,481 276.16,480.908C277.29,482.039 279.047,484.516 279.047,484.516C279.047,484.516 280.804,482.039 281.934,480.908C281.842,481 283.542,492.972 283.542,492.972L285.989,485.715C285.989,485.715 284.77,480.808 284.77,474.497" style="fill:rgb(255,146,57);fill-rule:nonzero;"/>
            <g transform="matrix(1,0,0,1,0,0.0004)">
                <path d="M236.977,489.508C236.977,489.508 236.848,487.955 236.848,485.958C236.848,483.962 236.977,481.541 236.977,481.541C239.922,481.541 242.866,482.646 242.866,485.525C242.866,488.404 239.774,489.508 236.977,489.508M232.854,476.882C232.854,476.882 233.443,480.969 233.443,485.066C233.443,489.157 232.854,493.25 232.854,493.25C240.437,493.25 246.944,493.381 246.944,485.352C246.944,477.322 236.947,476.882 232.854,476.882" style="fill:rgb(255,146,57);fill-rule:nonzero;"/>
            </g>
            <g transform="matrix(1,0,0,1,0.323918,0.0004)">
                <path d="M251.038,479.431C250.976,478.618 250.863,477.152 250.863,477.152C250.863,477.152 253.325,477.084 253.4,478.061C253.475,479.038 251.921,479.2 251.038,479.431M259.244,486.746C255.135,484.441 253.36,481.464 253.36,481.464C253.36,481.464 256.84,479.969 256.627,477.201C256.414,474.432 251.999,474.28 247.357,474.636C247.357,474.636 248.04,478.188 248.388,482.719C248.736,487.251 248.644,491.393 248.644,491.393L253.163,491.046C253.163,491.046 252.435,489.39 251.916,484.761C252.824,486.985 255.718,489.896 255.718,489.896C255.718,489.896 258.693,487.035 259.244,486.746" style="fill:rgb(255,146,57);fill-rule:nonzero;"/>
            </g>
        </g>
    </g>
</svg>
